<svg width="100" height="100" viewBox="0 0 100 100" fill="none" xmlns="http://www.w3.org/2000/svg">
  <g>
    <circle cx="25" cy="20" r="2" fill="#FFD700"/>
    <circle cx="70" cy="30" r="1.5" fill="#FFD700"/>
    <circle cx="50" cy="70" r="2.5" fill="#FFD700"/>
    <circle cx="80" cy="60" r="1" fill="#FFD700"/>
    <circle cx="35" cy="80" r="1.7" fill="#FFD700"/>
    <polygon points="60,10 62,15 67,16 62,18 60,23 58,18 53,16 58,15"
      fill="#FFD700"/>
    <polygon points="20,50 22,54 26,55 22,58 20,62 18,58 14,55 18,54"
      fill="#FFD700"/>
    <polygon points="80,80 82,85 87,86 82,88 80,93 78,88 73,86 78,85"
      fill="#FFD700"/>
  </g>
</svg>
